G75*
G70*
%OFA0B0*%
%FSLAX24Y24*%
%IPPOS*%
%LPD*%
%AMOC8*
5,1,8,0,0,1.08239X$1,22.5*
%
%ADD10C,0.0000*%
%ADD11C,0.1182*%
%ADD12C,0.0749*%
%ADD13C,0.0600*%
%ADD14C,0.0730*%
%ADD15OC8,0.1143*%
%ADD16C,0.0867*%
%ADD17C,0.0680*%
%ADD18C,0.0907*%
%ADD19OC8,0.0600*%
%ADD20OC8,0.0930*%
%ADD21C,0.1386*%
%ADD22C,0.0476*%
D10*
X011583Y009181D02*
X044260Y009181D01*
X044260Y009180D02*
X044299Y009182D01*
X044337Y009188D01*
X044374Y009197D01*
X044411Y009210D01*
X044446Y009227D01*
X044479Y009246D01*
X044510Y009269D01*
X044539Y009295D01*
X044565Y009324D01*
X044588Y009355D01*
X044607Y009388D01*
X044624Y009423D01*
X044637Y009460D01*
X044646Y009497D01*
X044652Y009535D01*
X044654Y009574D01*
X044654Y017055D01*
X044652Y017094D01*
X044646Y017132D01*
X044637Y017169D01*
X044624Y017206D01*
X044607Y017241D01*
X044588Y017274D01*
X044565Y017305D01*
X044539Y017334D01*
X044510Y017360D01*
X044479Y017383D01*
X044446Y017402D01*
X044411Y017419D01*
X044374Y017432D01*
X044337Y017441D01*
X044299Y017447D01*
X044260Y017449D01*
X044260Y017448D02*
X036780Y017448D01*
X036583Y017645D02*
X036585Y017671D01*
X036590Y017696D01*
X036598Y017720D01*
X036609Y017744D01*
X036624Y017765D01*
X036641Y017784D01*
X036660Y017801D01*
X036682Y017816D01*
X036705Y017827D01*
X036729Y017835D01*
X036754Y017840D01*
X036780Y017842D01*
X044260Y017842D01*
X044299Y017844D01*
X044337Y017850D01*
X044374Y017859D01*
X044411Y017872D01*
X044446Y017889D01*
X044479Y017908D01*
X044510Y017931D01*
X044539Y017957D01*
X044565Y017986D01*
X044588Y018017D01*
X044607Y018050D01*
X044624Y018085D01*
X044637Y018122D01*
X044646Y018159D01*
X044652Y018197D01*
X044654Y018236D01*
X044654Y035789D01*
X044538Y036068D02*
X042013Y038593D01*
X041735Y038708D02*
X014108Y038708D01*
X013830Y038593D02*
X011305Y036068D01*
X011189Y035789D02*
X011189Y018236D01*
X011191Y018197D01*
X011197Y018159D01*
X011206Y018122D01*
X011219Y018085D01*
X011236Y018050D01*
X011255Y018017D01*
X011278Y017986D01*
X011304Y017957D01*
X011333Y017931D01*
X011364Y017908D01*
X011397Y017889D01*
X011432Y017872D01*
X011469Y017859D01*
X011506Y017850D01*
X011544Y017844D01*
X011583Y017842D01*
X019063Y017842D01*
X019260Y017645D02*
X019258Y017619D01*
X019253Y017594D01*
X019245Y017570D01*
X019234Y017547D01*
X019219Y017525D01*
X019202Y017506D01*
X019183Y017489D01*
X019162Y017474D01*
X019138Y017463D01*
X019114Y017455D01*
X019089Y017450D01*
X019063Y017448D01*
X011583Y017448D01*
X011583Y017449D02*
X011544Y017447D01*
X011506Y017441D01*
X011469Y017432D01*
X011432Y017419D01*
X011397Y017402D01*
X011364Y017383D01*
X011333Y017360D01*
X011304Y017334D01*
X011278Y017305D01*
X011255Y017274D01*
X011236Y017241D01*
X011219Y017206D01*
X011206Y017169D01*
X011197Y017132D01*
X011191Y017094D01*
X011189Y017055D01*
X011189Y009574D01*
X011191Y009535D01*
X011197Y009497D01*
X011206Y009460D01*
X011219Y009423D01*
X011236Y009388D01*
X011255Y009355D01*
X011278Y009324D01*
X011304Y009295D01*
X011333Y009269D01*
X011364Y009246D01*
X011397Y009227D01*
X011432Y009210D01*
X011469Y009197D01*
X011506Y009188D01*
X011544Y009182D01*
X011583Y009180D01*
X019260Y017645D02*
X019258Y017671D01*
X019253Y017696D01*
X019245Y017720D01*
X019234Y017744D01*
X019219Y017765D01*
X019202Y017784D01*
X019183Y017801D01*
X019162Y017816D01*
X019138Y017827D01*
X019114Y017835D01*
X019089Y017840D01*
X019063Y017842D01*
X036583Y017645D02*
X036585Y017619D01*
X036590Y017594D01*
X036598Y017570D01*
X036609Y017547D01*
X036624Y017525D01*
X036641Y017506D01*
X036660Y017489D01*
X036682Y017474D01*
X036705Y017463D01*
X036729Y017455D01*
X036754Y017450D01*
X036780Y017448D01*
X045441Y016661D02*
X045441Y009574D01*
X045443Y009535D01*
X045449Y009497D01*
X045458Y009460D01*
X045471Y009423D01*
X045488Y009388D01*
X045507Y009355D01*
X045530Y009324D01*
X045556Y009295D01*
X045585Y009269D01*
X045616Y009246D01*
X045649Y009227D01*
X045684Y009210D01*
X045721Y009197D01*
X045758Y009188D01*
X045796Y009182D01*
X045835Y009180D01*
X045835Y009181D02*
X055087Y009181D01*
X055087Y009180D02*
X055126Y009182D01*
X055164Y009188D01*
X055201Y009197D01*
X055238Y009210D01*
X055273Y009227D01*
X055306Y009246D01*
X055337Y009269D01*
X055366Y009295D01*
X055392Y009324D01*
X055415Y009355D01*
X055434Y009388D01*
X055451Y009423D01*
X055464Y009460D01*
X055473Y009497D01*
X055479Y009535D01*
X055481Y009574D01*
X055481Y016661D01*
X055479Y016700D01*
X055473Y016738D01*
X055464Y016775D01*
X055451Y016812D01*
X055434Y016847D01*
X055415Y016880D01*
X055392Y016911D01*
X055366Y016940D01*
X055337Y016966D01*
X055306Y016989D01*
X055273Y017008D01*
X055238Y017025D01*
X055201Y017038D01*
X055164Y017047D01*
X055126Y017053D01*
X055087Y017055D01*
X045835Y017055D01*
X045796Y017053D01*
X045758Y017047D01*
X045721Y017038D01*
X045684Y017025D01*
X045649Y017008D01*
X045616Y016989D01*
X045585Y016966D01*
X045556Y016940D01*
X045530Y016911D01*
X045507Y016880D01*
X045488Y016847D01*
X045471Y016812D01*
X045458Y016775D01*
X045449Y016738D01*
X045443Y016700D01*
X045441Y016661D01*
X045835Y020007D02*
X055087Y020007D01*
X055126Y020009D01*
X055164Y020015D01*
X055201Y020024D01*
X055238Y020037D01*
X055273Y020054D01*
X055306Y020073D01*
X055337Y020096D01*
X055366Y020122D01*
X055392Y020151D01*
X055415Y020182D01*
X055434Y020215D01*
X055451Y020250D01*
X055464Y020287D01*
X055473Y020324D01*
X055479Y020362D01*
X055481Y020401D01*
X055481Y027488D01*
X055479Y027527D01*
X055473Y027565D01*
X055464Y027602D01*
X055451Y027639D01*
X055434Y027674D01*
X055415Y027707D01*
X055392Y027738D01*
X055366Y027767D01*
X055337Y027793D01*
X055306Y027816D01*
X055273Y027835D01*
X055238Y027852D01*
X055201Y027865D01*
X055164Y027874D01*
X055126Y027880D01*
X055087Y027882D01*
X055087Y027881D02*
X045835Y027881D01*
X045835Y027882D02*
X045796Y027880D01*
X045758Y027874D01*
X045721Y027865D01*
X045684Y027852D01*
X045649Y027835D01*
X045616Y027816D01*
X045585Y027793D01*
X045556Y027767D01*
X045530Y027738D01*
X045507Y027707D01*
X045488Y027674D01*
X045471Y027639D01*
X045458Y027602D01*
X045449Y027565D01*
X045443Y027527D01*
X045441Y027488D01*
X045441Y020598D01*
X045434Y020555D01*
X045431Y020511D01*
X045432Y020468D01*
X045437Y020424D01*
X045445Y020381D01*
X045457Y020339D01*
X045473Y020298D01*
X045493Y020259D01*
X045515Y020222D01*
X045541Y020186D01*
X045570Y020153D01*
X045602Y020123D01*
X045636Y020095D01*
X045672Y020071D01*
X045711Y020050D01*
X045751Y020032D01*
X045792Y020018D01*
X045835Y020008D01*
X045835Y030834D02*
X055087Y030834D01*
X055126Y030836D01*
X055164Y030842D01*
X055201Y030851D01*
X055238Y030864D01*
X055273Y030881D01*
X055306Y030900D01*
X055337Y030923D01*
X055366Y030949D01*
X055392Y030978D01*
X055415Y031009D01*
X055434Y031042D01*
X055451Y031077D01*
X055464Y031114D01*
X055473Y031151D01*
X055479Y031189D01*
X055481Y031228D01*
X055481Y038315D01*
X055479Y038354D01*
X055473Y038392D01*
X055464Y038429D01*
X055451Y038466D01*
X055434Y038501D01*
X055415Y038534D01*
X055392Y038565D01*
X055366Y038594D01*
X055337Y038620D01*
X055306Y038643D01*
X055273Y038662D01*
X055238Y038679D01*
X055201Y038692D01*
X055164Y038701D01*
X055126Y038707D01*
X055087Y038709D01*
X055087Y038708D02*
X045835Y038708D01*
X045835Y038709D02*
X045796Y038707D01*
X045758Y038701D01*
X045721Y038692D01*
X045684Y038679D01*
X045649Y038662D01*
X045616Y038643D01*
X045585Y038620D01*
X045556Y038594D01*
X045530Y038565D01*
X045507Y038534D01*
X045488Y038501D01*
X045471Y038466D01*
X045458Y038429D01*
X045449Y038392D01*
X045443Y038354D01*
X045441Y038315D01*
X045441Y031228D01*
X045443Y031189D01*
X045449Y031151D01*
X045458Y031114D01*
X045471Y031077D01*
X045488Y031042D01*
X045507Y031009D01*
X045530Y030978D01*
X045556Y030949D01*
X045585Y030923D01*
X045616Y030900D01*
X045649Y030881D01*
X045684Y030864D01*
X045721Y030851D01*
X045758Y030842D01*
X045796Y030836D01*
X045835Y030834D01*
X044654Y035789D02*
X044652Y035828D01*
X044646Y035866D01*
X044637Y035903D01*
X044624Y035940D01*
X044607Y035975D01*
X044588Y036008D01*
X044565Y036039D01*
X044539Y036068D01*
X042014Y038594D02*
X041985Y038620D01*
X041954Y038643D01*
X041921Y038662D01*
X041886Y038679D01*
X041849Y038692D01*
X041812Y038701D01*
X041774Y038707D01*
X041735Y038709D01*
X021662Y036149D02*
X021664Y036196D01*
X021670Y036242D01*
X021680Y036288D01*
X021693Y036333D01*
X021711Y036376D01*
X021732Y036418D01*
X021756Y036458D01*
X021784Y036495D01*
X021815Y036530D01*
X021849Y036563D01*
X021885Y036592D01*
X021924Y036618D01*
X021965Y036641D01*
X022008Y036660D01*
X022052Y036676D01*
X022097Y036688D01*
X022143Y036696D01*
X022190Y036700D01*
X022236Y036700D01*
X022283Y036696D01*
X022329Y036688D01*
X022374Y036676D01*
X022418Y036660D01*
X022461Y036641D01*
X022502Y036618D01*
X022541Y036592D01*
X022577Y036563D01*
X022611Y036530D01*
X022642Y036495D01*
X022670Y036458D01*
X022694Y036418D01*
X022715Y036376D01*
X022733Y036333D01*
X022746Y036288D01*
X022756Y036242D01*
X022762Y036196D01*
X022764Y036149D01*
X022762Y036102D01*
X022756Y036056D01*
X022746Y036010D01*
X022733Y035965D01*
X022715Y035922D01*
X022694Y035880D01*
X022670Y035840D01*
X022642Y035803D01*
X022611Y035768D01*
X022577Y035735D01*
X022541Y035706D01*
X022502Y035680D01*
X022461Y035657D01*
X022418Y035638D01*
X022374Y035622D01*
X022329Y035610D01*
X022283Y035602D01*
X022236Y035598D01*
X022190Y035598D01*
X022143Y035602D01*
X022097Y035610D01*
X022052Y035622D01*
X022008Y035638D01*
X021965Y035657D01*
X021924Y035680D01*
X021885Y035706D01*
X021849Y035735D01*
X021815Y035768D01*
X021784Y035803D01*
X021756Y035840D01*
X021732Y035880D01*
X021711Y035922D01*
X021693Y035965D01*
X021680Y036010D01*
X021670Y036056D01*
X021664Y036102D01*
X021662Y036149D01*
X014108Y038709D02*
X014069Y038707D01*
X014031Y038701D01*
X013994Y038692D01*
X013957Y038679D01*
X013922Y038662D01*
X013889Y038643D01*
X013858Y038620D01*
X013829Y038594D01*
X011304Y036068D02*
X011278Y036039D01*
X011255Y036008D01*
X011236Y035975D01*
X011219Y035940D01*
X011206Y035903D01*
X011197Y035866D01*
X011191Y035828D01*
X011189Y035789D01*
D11*
X022213Y036149D03*
D12*
X033378Y037437D03*
X033378Y034437D03*
D13*
X029103Y022358D02*
X029103Y021838D01*
X027331Y021838D02*
X027331Y022358D01*
X027331Y019358D02*
X027331Y018838D01*
X029103Y018838D02*
X029103Y019358D01*
D14*
X029784Y024330D03*
X027922Y024330D03*
X026083Y024334D03*
X019941Y024330D03*
X018079Y024330D03*
X016240Y024334D03*
X035925Y024334D03*
X037764Y024330D03*
X039626Y024330D03*
D15*
X033788Y022842D03*
X031898Y022842D03*
X031903Y020992D03*
X033783Y020992D03*
X033788Y019141D03*
X031898Y019141D03*
X023945Y019141D03*
X022055Y019141D03*
X022060Y020992D03*
X023940Y020992D03*
X023945Y022842D03*
X022055Y022842D03*
D16*
X027528Y034338D02*
X028315Y034338D01*
X026032Y035165D02*
X026032Y035952D01*
X027528Y036740D02*
X028315Y036740D01*
X019239Y036496D02*
X019239Y035709D01*
X017585Y037756D02*
X016798Y037756D01*
X015144Y036496D02*
X015144Y035709D01*
D17*
X013458Y030366D02*
X012858Y030366D01*
X012858Y029366D02*
X013458Y029366D01*
X013458Y028366D02*
X012858Y028366D01*
X012858Y027366D02*
X013458Y027366D01*
X024358Y036366D02*
X024958Y036366D01*
X024958Y037366D02*
X024358Y037366D01*
X042385Y030366D02*
X042985Y030366D01*
X042985Y029366D02*
X042385Y029366D01*
X042385Y028366D02*
X042985Y028366D01*
X042985Y027366D02*
X042385Y027366D01*
X053999Y026444D02*
X054599Y026444D01*
X054599Y025444D02*
X053999Y025444D01*
X053999Y024444D02*
X054599Y024444D01*
X054599Y023444D02*
X053999Y023444D01*
X053999Y022444D02*
X054599Y022444D01*
X054599Y021444D02*
X053999Y021444D01*
X053999Y015618D02*
X054599Y015618D01*
X054599Y014618D02*
X053999Y014618D01*
X053999Y013618D02*
X054599Y013618D01*
X054599Y012618D02*
X053999Y012618D01*
X053999Y011618D02*
X054599Y011618D01*
X054599Y010618D02*
X053999Y010618D01*
X030422Y010456D02*
X030422Y011056D01*
X029422Y011056D02*
X029422Y010456D01*
X028422Y010456D02*
X028422Y011056D01*
X027422Y011056D02*
X027422Y010456D01*
X026422Y010456D02*
X026422Y011056D01*
X025422Y011056D02*
X025422Y010456D01*
X053999Y032271D02*
X054599Y032271D01*
X054599Y033271D02*
X053999Y033271D01*
X053999Y034271D02*
X054599Y034271D01*
X054599Y035271D02*
X053999Y035271D01*
X053999Y036271D02*
X054599Y036271D01*
X054599Y037271D02*
X053999Y037271D01*
D18*
X043079Y016509D03*
X038079Y016509D03*
X038079Y010120D03*
X043079Y010120D03*
X017764Y010120D03*
X015264Y010120D03*
X012764Y010120D03*
X012764Y016509D03*
X015264Y016509D03*
X017764Y016509D03*
D19*
X027922Y014405D03*
X027922Y013405D03*
D20*
X012770Y020598D03*
X036583Y037527D03*
X041689Y032127D03*
X043473Y032803D03*
X043079Y020598D03*
D21*
X047685Y021858D03*
X049575Y021858D03*
X051465Y021858D03*
X051465Y023944D03*
X049575Y023944D03*
X047685Y023944D03*
X047685Y026031D03*
X049575Y026031D03*
X051465Y026031D03*
X051465Y032685D03*
X049575Y032685D03*
X047685Y032685D03*
X047685Y034771D03*
X049575Y034771D03*
X051465Y034771D03*
X051465Y036858D03*
X049575Y036858D03*
X047685Y036858D03*
X047685Y015204D03*
X049575Y015204D03*
X051465Y015204D03*
X051465Y013118D03*
X049575Y013118D03*
X047685Y013118D03*
X047685Y011031D03*
X049575Y011031D03*
X051465Y011031D03*
D22*
X033889Y013031D03*
X032339Y012131D03*
X030539Y013981D03*
X030089Y015181D03*
X027939Y016281D03*
X025689Y016531D03*
X024139Y016881D03*
X021289Y016581D03*
X021839Y014681D03*
X020789Y013931D03*
X019989Y011931D03*
X024389Y013831D03*
X031039Y017981D03*
X029889Y020581D03*
X030339Y021131D03*
X026739Y023031D03*
X028039Y025531D03*
X028139Y028031D03*
X028139Y029031D03*
X028439Y029581D03*
X028939Y029031D03*
X030439Y029631D03*
X031289Y029031D03*
X031389Y028331D03*
X031139Y026481D03*
X034089Y025631D03*
X035739Y029831D03*
X037011Y031071D03*
X035289Y032681D03*
X036389Y034381D03*
X038139Y033331D03*
X038689Y034031D03*
X039289Y032631D03*
X040689Y033431D03*
X039789Y030431D03*
X040339Y029731D03*
X039889Y028281D03*
X033289Y033331D03*
X031239Y035831D03*
X029689Y034431D03*
X025389Y033831D03*
X026739Y029781D03*
X023989Y029781D03*
X022189Y029931D03*
X020189Y030031D03*
X017439Y029631D03*
X016989Y028031D03*
X017989Y027531D03*
X015589Y029031D03*
X016939Y031331D03*
X016139Y033881D03*
X017889Y033881D03*
X022489Y027031D03*
X020839Y025481D03*
X021789Y024681D03*
X020189Y022131D03*
X018639Y021681D03*
X017789Y021331D03*
X017689Y020431D03*
X016289Y020981D03*
X016539Y019331D03*
X015589Y023331D03*
X016989Y023631D03*
X014939Y025031D03*
X016289Y025131D03*
X014339Y026481D03*
M02*
