%
M48
M72
T01C0.0236
T02C0.0320
T03C0.0394
T04C0.0400
T05C0.0433
T06C0.0520
T07C0.0551
T08C0.0709
T09C0.0906
T10C0.1102
%
T01
X19989Y11931
X20789Y13931
X21839Y14681
X21289Y16581
X24139Y16881
X25689Y16531
X27939Y16281
X30089Y15181
X30539Y13981
X32339Y12131
X33889Y13031
X31039Y17981
X29889Y20581
X30339Y21131
X26739Y23031
X28039Y25531
X28139Y28031
X28139Y29031
X28439Y29581
X28939Y29031
X30439Y29631
X31289Y29031
X31389Y28331
X31139Y26481
X34089Y25631
X35739Y29831
X37011Y31071
X35289Y32681
X36389Y34381
X38139Y33331
X38689Y34031
X39289Y32631
X40689Y33431
X39789Y30431
X40339Y29731
X39889Y28281
X33289Y33331
X31239Y35831
X29689Y34431
X25389Y33831
X26739Y29781
X23989Y29781
X22189Y29931
X20189Y30031
X17439Y29631
X16989Y28031
X17989Y27531
X15589Y29031
X16939Y31331
X16139Y33881
X17889Y33881
X22489Y27031
X20839Y25481
X21789Y24681
X20189Y22131
X18639Y21681
X17789Y21331
X17689Y20431
X16289Y20981
X16539Y19331
X15589Y23331
X16989Y23631
X14939Y25031
X16289Y25131
X14339Y26481
X24389Y13831
T02
X27922Y13405
X27922Y14405
X27331Y19098
X29103Y19098
X29103Y22098
X27331Y22098
T03
X27922Y34338
X26032Y35559
X27922Y36740
X19239Y36103
X17192Y37756
X15144Y36103
T04
X13158Y30366
X13158Y29366
X13158Y28366
X13158Y27366
X24658Y36366
X24658Y37366
X42685Y30366
X42685Y29366
X42685Y28366
X42685Y27366
X54299Y26444
X54299Y25444
X54299Y24444
X54299Y23444
X54299Y22444
X54299Y21444
X54299Y15618
X54299Y14618
X54299Y13618
X54299Y12618
X54299Y11618
X54299Y10618
X30422Y10756
X29422Y10756
X28422Y10756
X27422Y10756
X26422Y10756
X25422Y10756
X54299Y32271
X54299Y33271
X54299Y34271
X54299Y35271
X54299Y36271
X54299Y37271
T05
X39626Y24330
X37764Y24330
X35925Y24334
X29784Y24330
X27922Y24330
X26083Y24334
X19941Y24330
X18079Y24330
X16240Y24334
X33378Y34437
X33378Y37437
T06
X36583Y37527
X41689Y32127
X43473Y32803
X43079Y20598
X12770Y20598
T07
X12764Y10120
X15264Y10120
X17764Y10120
X17764Y16509
X15264Y16509
X12764Y16509
X38079Y16509
X43079Y16509
X43079Y10120
X38079Y10120
T08
X33788Y19141
X31898Y19141
X31903Y20992
X33783Y20992
X33788Y22842
X31898Y22842
X23945Y22842
X22055Y22842
X22060Y20992
X23940Y20992
X23945Y19141
X22055Y19141
T09
X47685Y21858
X49575Y21858
X51465Y21858
X51465Y23944
X49575Y23944
X47685Y23944
X47685Y26031
X49575Y26031
X51465Y26031
X51465Y32685
X49575Y32685
X47685Y32685
X47685Y34771
X49575Y34771
X51465Y34771
X51465Y36858
X49575Y36858
X47685Y36858
X47685Y15204
X49575Y15204
X51465Y15204
X51465Y13118
X49575Y13118
X47685Y13118
X47685Y11031
X49575Y11031
X51465Y11031
T10
X22213Y36149
M30
